<?xml version="1.0" encoding="UTF-8" standalone="no"?>
<!DOCTYPE svg PUBLIC "-//W3C//DTD SVG 1.1//EN" "http://www.w3.org/Graphics/SVG/1.1/DTD/svg11.dtd">
<svg width="100%" height="100%" viewBox="0 0 32 32" version="1.1" xmlns="http://www.w3.org/2000/svg" xmlns:xlink="http://www.w3.org/1999/xlink" xml:space="preserve" xmlns:serif="http://www.serif.com/" style="fill-rule:evenodd;clip-rule:evenodd;stroke-linejoin:round;stroke-miterlimit:2;">
    <path d="M32,7L32,25C32,28.863 28.863,32 25,32L7,32C3.137,32 0,28.863 0,25L0,7C0,3.137 3.137,0 7,0L25,0C28.863,0 32,3.137 32,7Z" style="fill:rgb(14,17,23);"/>
    <circle cx="9" cy="19" r="4.2" style="fill:rgb(14,17,23);"/>
    <g transform="matrix(0.109409,0,0,0.109409,-6.30044,-6.32912)">
        <path d="M319.647,124.062C306.079,118.257 285.68,115.158 266.935,118.233C238.228,122.925 218.226,137.601 204.579,157.311C193.656,141.539 178.62,128.986 158.366,122.286C153.322,120.615 147.923,119.115 142.062,118.234C123.455,115.423 103.044,118.06 89.439,124.063C89.385,123.597 89.962,123.116 90.329,122.608C101.878,106.707 116.222,93.378 133.626,83.194C151.752,72.599 172.565,65.331 199.799,64.059C214.817,63.362 228.926,65.549 240.422,68.601C264.314,74.948 282.86,86.116 298.81,100.226C306.343,106.899 313.503,114.895 319.329,123.333C319.449,123.509 319.828,123.761 319.647,124.062Z" style="fill:rgb(240,90,62);"/>
    </g>
    <g transform="matrix(0.109409,0,0,0.109409,-6.30044,-6.32912)">
        <path d="M123.581,146.85C136.056,146.255 147.034,149.149 155.853,153.58C164.324,157.843 171.448,164.065 176.853,171.508C182.36,179.095 186.31,187.978 188.041,199.313C188.925,205.09 188.931,211.283 188.931,217.884L188.931,276.356C188.931,279.561 188.45,283.197 189.183,285.674C189.869,288.037 191.54,289.81 194.69,289.888C200.713,290.059 207.218,290.014 214.072,289.966C217.18,289.948 219.11,288.517 219.904,285.998C220.649,283.635 220.241,279.836 220.241,276.602C220.241,257.141 220.012,237.729 220.319,218.28C220.421,211.468 220.169,205.478 221.04,199.64C223.529,183.212 231.074,170.605 241.48,161.69C248.142,155.979 257.286,151.034 267.506,148.716C272.718,147.538 278.82,146.796 285.187,147.093C291.452,147.388 296.826,148.223 301.966,149.762C311.873,152.75 320.104,157.598 326.62,164.124C336.378,173.881 343.472,186.29 345.023,204.091C345.545,210.004 344.962,216.337 344.217,222.262C342.768,233.775 340.002,244.166 336.594,253.578C329.746,272.494 319.219,287.987 306.678,301.568C294.366,314.902 278.747,325.977 260.94,333.756C251.953,337.694 242.134,340.91 231.181,342.996C220.167,345.112 207.752,346.122 195.176,345.287C171.242,343.682 151.632,336.714 135.255,327.287C118.849,317.824 105.051,305.878 93.49,291.101C79.163,272.819 68.523,250.761 64.867,222.262C64.116,216.428 63.532,210.16 64.049,204.091C65.053,192.425 68.715,182.665 73.704,174.825C83.536,159.37 99.744,147.983 123.581,146.85ZM102.25,159.096C96.154,162.003 90.99,166.058 86.679,170.693C82.23,175.482 78.695,180.604 75.978,187.151C73.345,193.482 71.602,201.573 71.992,210.27C72.773,227.179 79.958,238.52 89.108,247.48C93.617,251.899 99.13,255.539 105.563,258.182C112.062,260.86 119.956,262.589 128.769,262.246C137.114,261.903 144.334,259.661 150.334,256.643C156.406,253.595 161.702,249.813 165.989,245.13C174.622,235.703 181.151,223.433 180.658,205.557C180.436,197.468 178.049,189.899 175.151,183.905C172.133,177.68 168.412,172.771 163.56,168.346C154.428,160.032 141.719,152.733 123.887,153.581C115.32,153.989 108.383,156.171 102.25,159.096ZM243.175,170.693C238.618,175.338 235.167,180.532 232.474,187.151C229.967,193.319 228.032,201.411 228.422,210.27C228.789,218.618 230.965,225.757 234.013,231.832C237.098,237.946 240.795,243.08 245.533,247.48C254.545,255.849 267.416,262.943 285.187,262.246C293.549,261.903 300.757,259.661 306.835,256.721C312.926,253.799 318.107,249.753 322.406,245.13C326.728,240.465 330.42,235.153 333.107,228.676C335.753,222.297 337.556,214.512 337.171,205.557C336.81,197.384 334.64,189.869 331.646,183.905C325.682,172.037 316.322,162.896 303.6,157.639C297.204,154.994 289.1,153.166 280.401,153.581C263.208,154.404 252.074,161.618 243.175,170.693Z" style="fill:rgb(240,90,62);"/>
    </g>
    <g transform="matrix(0.109409,0,0,0.109409,-6.30044,-6.32912)">
        <path d="M125.36,184.881C132.61,184.493 138.376,187.661 142.139,191.127C145.98,194.65 149.137,200.034 149.353,206.933C149.593,214.454 146.81,219.765 143.119,223.718C139.464,227.647 133.89,230.665 127.302,230.944C119.986,231.254 114.262,228.362 110.517,224.707C106.555,220.817 103.699,215.996 103.303,208.884C102.888,201.646 105.924,195.958 109.471,192.183C113.156,188.254 117.978,185.278 125.36,184.881Z" style="fill:rgb(240,90,62);"/>
    </g>
    <g transform="matrix(0.109409,0,0,0.109409,-6.30044,-6.32912)">
        <path d="M281.869,184.881C288.915,184.505 295.107,187.58 298.654,191.127C302.424,194.899 305.544,199.893 305.862,206.933C306.205,214.4 303.193,219.789 299.616,223.718C296.039,227.662 290.34,230.665 283.81,230.944C276.343,231.254 270.975,228.323 267.025,224.707C263.087,221.097 260.04,215.713 259.733,208.962C259.39,201.588 262.372,195.85 265.967,192.183C269.796,188.275 274.311,185.287 281.869,184.881Z" style="fill:rgb(240,90,62);"/>
    </g>
</svg>
